# xmcd
# 
# Track frame offsets:
#     150
#     21938
#     40317
#     60885
#     75584
#     92124
#     109157
#     123546
#     140242
#     164777
#     189018
# 
# Disc length: 2731
# 
# Revision: 0
# Processed by: cddbd v1.5.2PL0 Copyright (c) Steve Scherf et al.
# Submitted via: fre:ac v1.0.17
# 
DISCID=920aa90b
DTITLE=Jake La Botz - Sing This To Yourself
DYEAR=2008
DGENRE=Blues
TTITLE0=Hungry Again (Put Me In A Hole)
TTITLE1=Depression Brings Me Flowers
TTITLE2=Hard To Love What You Kill
TTITLE3=When Your Trouble Gets Like Mine
TTITLE4=Smelling Paper Roses
TTITLE5=The Devil Lives In My Throat
TTITLE6=Down To The Yard
TTITLE7=About Who I Am
TTITLE8=The World Ended Yesterday
TTITLE9=Is There Anything Left To Do
TTITLE10=The Sky Is Wide Open
EXTD=
EXTT0=
EXTT1=
EXTT2=
EXTT3=
EXTT4=
EXTT5=
EXTT6=
EXTT7=
EXTT8=
EXTT9=
EXTT10=
PLAYORDER=
